<svg width="152" height="152" viewBox="0 0 152 152" fill="none" xmlns="http://www.w3.org/2000/svg">
<path d="M90.0953 71.5947L113.158 34.5936L150.159 57.6559L127.096 94.6571L90.0953 71.5947ZM12.9726 71.6898L62.9463 73.939L37.0012 115.565L12.9726 71.6898ZM83.1259 41.563C86.1842 36.6563 87.168 30.7357 85.861 25.1037C84.554 19.4716 81.0632 14.5894 76.1565 11.5312C71.2499 8.47292 65.3293 7.48908 59.6972 8.7961C54.0652 10.1031 49.183 13.5939 46.1247 18.5006C43.0665 23.4072 42.0826 29.3278 43.3897 34.9599C44.6967 40.5919 48.1875 45.4741 53.0941 48.5324C58.0008 51.5906 63.9214 52.5745 69.5534 51.2674C75.1855 49.9604 80.0677 46.4696 83.1259 41.563Z" stroke="#F7B2CF" stroke-opacity="0.58" stroke-width="2.725" stroke-linejoin="round"/>
<path d="M78.5643 90.0953L92.5031 150.159M55.502 127.096L115.566 113.158L55.502 127.096Z" stroke="#F7B2CF" stroke-opacity="0.58" stroke-width="2.725" stroke-linecap="round" stroke-linejoin="round"/>
</svg>
