<svg width="162" height="824" viewBox="0 0 162 824" fill="none" xmlns="http://www.w3.org/2000/svg">
<path d="M108.757 89.5995L146.27 111.819L124.05 149.332L86.537 127.113L108.757 89.5995ZM106.918 12.4986L105.799 62.5104L63.5967 37.5133L106.918 12.4986ZM138.623 81.9527C143.598 84.8992 149.539 85.7489 155.14 84.3148C160.741 82.8808 165.543 79.2805 168.49 74.3059C171.436 69.3313 172.286 63.39 170.852 57.789C169.418 52.1879 165.817 47.3859 160.843 44.4394C155.868 41.4929 149.927 40.6432 144.326 42.0773C138.725 43.5113 133.923 47.1116 130.976 52.0862C128.03 57.0608 127.18 63.0021 128.614 68.6031C130.048 74.2042 133.649 79.0062 138.623 81.9527Z" stroke="#F7B2CF" stroke-opacity="0.58" stroke-width="2.725" stroke-linejoin="round"/>
<path d="M90.0006 78.4896L30.2676 93.7831M52.4873 56.2699L67.7808 116.003L52.4873 56.2699Z" stroke="#F7B2CF" stroke-opacity="0.58" stroke-width="2.725" stroke-linecap="round" stroke-linejoin="round"/>
<path d="M90.0953 239.595L113.158 202.594L150.159 225.656L127.096 262.657L90.0953 239.595ZM12.9726 239.69L62.9463 241.939L37.0012 283.565L12.9726 239.69ZM83.1259 209.563C86.1842 204.656 87.168 198.736 85.861 193.104C84.554 187.472 81.0632 182.589 76.1565 179.531C71.2499 176.473 65.3293 175.489 59.6972 176.796C54.0652 178.103 49.183 181.594 46.1247 186.501C43.0665 191.407 42.0826 197.328 43.3897 202.96C44.6967 208.592 48.1875 213.474 53.0941 216.532C58.0008 219.591 63.9214 220.574 69.5534 219.267C75.1855 217.96 80.0677 214.47 83.1259 209.563Z" stroke="#F7B2CF" stroke-opacity="0.58" stroke-width="2.725" stroke-linejoin="round"/>
<path d="M78.5643 258.095L92.5031 318.159M55.502 295.096L115.566 281.158L55.502 295.096Z" stroke="#F7B2CF" stroke-opacity="0.58" stroke-width="2.725" stroke-linecap="round" stroke-linejoin="round"/>
<path d="M101.722 415.647L118.72 375.497L158.87 392.495L141.872 432.645L101.722 415.647ZM25.5613 427.791L75.2727 422.204L56.1501 467.373L25.5613 427.791ZM90.1459 387.073C92.3999 381.749 92.4466 375.747 90.2757 370.388C88.1048 365.03 83.894 360.753 78.5698 358.499C73.2455 356.245 67.2439 356.198 61.8853 358.369C56.5266 360.54 52.2498 364.751 49.9958 370.075C47.7417 375.399 47.695 381.401 49.866 386.76C52.0369 392.118 56.2476 396.395 61.5719 398.649C66.8961 400.903 72.8977 400.95 78.2564 398.779C83.615 396.608 87.8918 392.397 90.1459 387.073Z" stroke="#F7B2CF" stroke-opacity="0.58" stroke-width="2.725" stroke-linejoin="round"/>
<path d="M93.2235 435.722L116.376 492.87M76.2256 475.872L133.374 452.72L76.2256 475.872Z" stroke="#F7B2CF" stroke-opacity="0.58" stroke-width="2.725" stroke-linecap="round" stroke-linejoin="round"/>
<path d="M130.722 578.647L147.72 538.497L187.87 555.495L170.872 595.645L130.722 578.647ZM54.5613 590.791L104.273 585.204L85.1501 630.373L54.5613 590.791ZM119.146 550.073C121.4 544.749 121.447 538.747 119.276 533.388C117.105 528.03 112.894 523.753 107.57 521.499C102.246 519.245 96.2439 519.198 90.8853 521.369C85.5266 523.54 81.2498 527.751 78.9958 533.075C76.7417 538.399 76.695 544.401 78.866 549.76C81.0369 555.118 85.2476 559.395 90.5719 561.649C95.8961 563.903 101.898 563.95 107.256 561.779C112.615 559.608 116.892 555.397 119.146 550.073Z" stroke="#F7B2CF" stroke-opacity="0.58" stroke-width="2.725" stroke-linejoin="round"/>
<path d="M122.223 598.722L145.376 655.87M105.226 638.872L162.374 615.72L105.226 638.872Z" stroke="#F7B2CF" stroke-opacity="0.58" stroke-width="2.725" stroke-linecap="round" stroke-linejoin="round"/>
<path d="M90.722 744.647L107.72 704.497L147.87 721.495L130.872 761.645L90.722 744.647ZM14.5613 756.791L64.2727 751.204L45.1501 796.373L14.5613 756.791ZM79.1459 716.073C81.3999 710.749 81.4466 704.747 79.2757 699.388C77.1048 694.03 72.894 689.753 67.5698 687.499C62.2455 685.245 56.2439 685.198 50.8853 687.369C45.5266 689.54 41.2498 693.751 38.9958 699.075C36.7417 704.399 36.695 710.401 38.866 715.76C41.0369 721.118 45.2476 725.395 50.5719 727.649C55.8961 729.903 61.8977 729.95 67.2564 727.779C72.615 725.608 76.8918 721.397 79.1459 716.073Z" stroke="#F7B2CF" stroke-opacity="0.58" stroke-width="2.725" stroke-linejoin="round"/>
<path d="M82.2235 764.722L105.376 821.87M65.2256 804.872L122.374 781.72L65.2256 804.872Z" stroke="#F7B2CF" stroke-opacity="0.58" stroke-width="2.725" stroke-linecap="round" stroke-linejoin="round"/>
</svg>
