<svg width="292" height="292" viewBox="0 0 292 292" fill="none" xmlns="http://www.w3.org/2000/svg">
<path d="M262.357 0L189.498 37.7167L121.973 8.51667L29.6429 14.6L0 273.75L95.4597 265.637L201.412 292L292 259.15L262.357 0ZM254.293 15.1305L281.459 252.619L203.281 280.967L202.848 271.847L271.813 245.81L248.249 28.7912L192.55 55.2075L192.17 47.2943L193.976 46.3647L254.293 15.1305ZM197.66 162.785C198.74 160.488 199.801 157.261 200.307 152.735C200.307 152.735 205.67 152.998 212.269 167.379C212.269 167.379 215.15 167.092 213.715 157.704C213.715 157.704 224.018 153.553 218.46 135.298C218.46 135.298 227.103 147.202 224.232 131.726C224.232 131.726 233.712 120.104 222.387 112.376C222.387 112.376 222.777 103.806 229.585 104.906C229.585 104.906 236.389 87.2107 233.108 108.22C233.108 108.22 233.303 112.376 237.63 117.063C237.63 117.063 239.494 110.157 236.189 102.711C236.189 102.711 242.998 89.9701 242.375 78.9276C242.375 78.9276 220.319 87.1085 195.776 84.6654C195.776 84.6654 196.973 80.1005 193.62 77.5357L192.934 63.1061L193.518 62.8287L242.107 39.7899L263.949 240.983L202.487 264.192L197.66 162.785ZM188.715 77.161C186.179 80.7769 179.142 91.8973 183.42 98.5549C183.42 98.5549 181.347 112.975 178.456 91.9411C178.456 91.9411 173.73 104.356 167.335 101.587C167.335 101.587 165.579 114.153 161.554 105.733C161.554 105.733 164.849 107.12 165.574 103.251C165.574 103.251 156.283 93.2989 150.73 108.347C150.73 108.347 146.195 110.152 147.952 117.209C147.952 117.209 151.134 111.388 152.789 120.25C152.789 120.25 154.546 118.868 155.281 107.524C155.281 107.524 159.69 105.324 156.283 114.289C156.283 114.289 166.386 114.449 150.73 123.409C150.73 123.409 149.864 123.263 149.183 119.827C149.183 119.827 146.813 128.1 141.956 131.035C141.956 131.035 143.095 134.339 139.493 135.858C139.493 135.858 137.542 140.978 142.185 140.978C142.185 140.978 146.2 128.675 153.83 138.354C153.83 138.354 155.286 137.805 153.013 132.962C153.013 132.962 157.023 134.5 158.575 140.841C158.575 140.841 161.053 140.413 161.447 134.899C161.447 134.899 164.557 127.852 169.613 136.15C169.613 136.15 162.902 134.208 161.16 140.978C161.16 140.978 164.333 139.591 166.309 141.532C166.309 141.532 166.508 144.691 164.484 145.912C165.36 147.557 166.309 149.134 167.632 150.468C168.001 150.811 168.24 151.271 168.308 151.771C168.377 152.27 168.27 152.778 168.007 153.208C171.579 159.32 178.178 167.457 182.797 154.468C182.797 154.468 176.616 157.977 174.548 148.297C174.548 148.297 187.021 149.884 192.774 162.396L197.616 264.343L100.613 237.138L102.069 222.747C104.083 227.911 106.444 230.008 106.444 230.008C103.704 207.549 119.91 193.158 119.91 193.158C123.059 177.74 115.053 170.82 107.631 167.705L111.442 129.998C112.97 128.096 113.87 126.825 113.87 126.825C113.32 124.932 112.785 123.273 112.274 121.754L115.968 85.1667C119.073 88.9481 119.428 92.3839 118.557 95.5083C114.561 109.88 119.701 114.284 119.701 114.284C122.82 102.146 133.527 100.21 133.527 100.21C132.914 88.8605 139.503 75.9589 139.503 75.9589C132.334 63.6414 122.08 71.9488 116.708 77.8277L117.126 73.6959C118.226 72.2797 119.374 70.737 120.615 68.9753C120.615 68.9753 119.589 68.2696 117.725 67.7537L120.995 35.3661L187.591 62.9698L188.058 63.1645L188.715 77.161ZM112.882 67.2573C109.563 67.4131 105.315 68.5567 100.317 72.0121C100.317 72.0121 97.9417 93.8245 111.578 80.154L110.055 95.2455C108.274 89.2887 104.049 87.2155 104.049 87.2155C99.9127 89.717 100.326 93.0263 100.326 93.0263C104.079 93.5909 106.371 98.1071 107.719 102.341C106.96 103.504 105.66 104.833 103.417 105.052C103.417 105.052 106.03 108.979 108.561 110.079L108.283 112.785C102.395 103.962 99.8445 121.691 99.8445 121.691C85.2883 105.47 103.709 97.3528 103.709 97.3528C92.4326 92.5883 87.2107 78.9325 87.2107 78.9325C86.6607 87.4151 83.3563 87.0403 83.3563 87.0403C57.5143 71.9342 52.8617 96.2627 52.8617 96.2627C56.9643 109.15 48.1703 110.624 48.1703 110.624C56.6869 112.094 61.0815 100.302 61.0815 100.302C78.6891 109.15 69.3403 140.846 69.3403 140.846C76.2071 144.886 78.1343 158.167 78.1343 158.167C82.9183 159.617 87.819 162.547 91.2549 164.868C91.9216 164.269 92.6078 163.7 93.3281 163.17C85.2981 157.495 85.2835 148.307 85.2835 148.307C92.5689 148.307 100.317 142.029 105.908 136.257L102.891 166.153C101.533 165.812 100.157 165.547 98.769 165.36C97.4716 165.982 96.2529 166.756 95.1385 167.666L95.7322 168.129C87.6341 183.687 98.5841 189.927 100.399 190.827L95.7517 236.817L31.3365 241.854L52.8228 38.3591L116.177 34.6312L112.882 67.2573ZM99.8689 244.516L197.976 272.032L198.414 281.225L98.6668 256.405L99.8689 244.516ZM187.299 47.3721L187.668 55.1101L121.764 27.7935L122.611 19.3937L185.634 46.6519L187.299 47.3721ZM38.3931 23.7785L117.803 18.5469L116.922 27.2777L46.2139 31.4338L23.1605 249.821L95.0168 244.19L93.8196 256.006L11.023 263.048L38.3931 23.7785Z" fill="#FA85FE" fill-opacity="0.83"/>
<path d="M146.301 168.47C146.301 168.47 156.628 170.402 152.496 190.302C152.496 190.302 154.146 205.812 163.203 204.396C163.203 204.396 165.675 182.014 177.223 164.868C177.223 164.868 172.542 169.531 167.232 154.069C166.429 154.653 165.339 154.79 164.429 153.884C162.142 151.602 160.76 148.726 159.27 145.835C159.059 145.419 158.973 144.951 159.022 144.487C151.508 141.684 136.29 138.871 134.134 160.999C134.139 160.999 137.015 176.232 146.301 168.47ZM141.57 116.776C142.281 126.743 143.614 129.77 145.361 125.628C147.118 121.521 141.57 116.776 141.57 116.776ZM138.451 126.183C138.451 126.183 141.356 125.755 140.524 122.1C140.524 122.1 138.451 122.314 138.451 126.183ZM137.331 106.147C137.331 106.147 130.007 106.147 132.596 109.89C135.171 113.622 137.331 106.147 137.331 106.147ZM173.934 196.945C173.934 196.945 176.172 192.38 176.099 185.342C176.104 185.342 168.979 193.48 173.934 196.945ZM220.099 168.338C220.099 168.338 214.94 173.044 215.884 177.332C216.814 181.634 221.34 176.485 220.099 168.338ZM240.729 183.556C242.992 179.595 228.333 174.689 228.333 174.689C231.229 178.982 238.675 187.09 240.729 183.556ZM224.333 184.403C227.773 178.515 213.918 181.332 213.918 181.332C213.918 181.332 222.994 186.729 224.333 184.403ZM229.779 185.63C229.779 185.63 227.005 191.835 216.697 194.448C216.697 194.448 218.872 199.436 216.697 208.844C216.697 208.844 227.102 195.567 233.098 214.771C233.098 214.771 238.242 217.565 241.848 200.176C241.848 200.176 237.521 193.913 236.081 185.007C236.086 185.002 234.655 196.414 229.779 185.63ZM231.813 129.016C232.47 128.466 232.981 128.266 232.981 128.266C227.934 120.105 229.779 131.868 229.779 131.868C230.105 131.094 230.489 130.5 230.883 129.999C231.151 133.483 230.314 138.676 224.873 143.611C224.868 143.611 236.538 139.211 231.813 129.016ZM142.748 67.9147C145.293 61.9482 137.292 55.1543 137.292 55.1543C138.319 69.4964 140.222 73.8764 142.748 67.9147ZM132.8 68.6982C132.8 68.6982 136.942 68.085 135.769 62.8388C135.769 62.8388 132.8 63.1356 132.8 68.6982Z" fill="#FA85FE" fill-opacity="0.83"/>
</svg>
